<svg width="255" height="66" viewBox="0 0 255 66" fill="none" xmlns="http://www.w3.org/2000/svg">
<path d="M82.563 12.9022C81.6998 11.0784 82.4869 8.91841 84.3212 8.07768L94.2599 3.52224C96.0942 2.68151 98.2809 3.47842 99.1441 5.30219L100.973 9.16714C103.128 13.7198 101.163 19.1117 96.5846 21.2104C92.0058 23.309 86.5472 21.3197 84.3924 16.7672L82.563 12.9022Z" fill="#7D5A41"/>
<path d="M121.807 3.53963C122.29 1.58473 124.27 0.379975 126.228 0.848729L136.909 3.40534C138.868 3.87409 140.064 5.83885 139.58 7.79375L138.565 11.9018C137.354 16.801 132.394 19.8202 127.486 18.6455C122.578 17.4707 119.581 12.5468 120.792 7.64765L121.807 3.53963Z" fill="#7D5A41"/>
<path d="M112.502 66C125.41 66 135.875 55.7025 135.875 43C135.875 30.2975 125.41 20 112.502 20C99.5937 20 89.1295 30.2975 89.1295 43C89.1295 55.7025 99.5937 66 112.502 66Z" fill="#7D5A41"/>
<path d="M114.897 60.0944C116.65 59.7973 117.613 56.9449 117.049 53.7234C116.485 50.502 114.607 48.1314 112.854 48.4286C111.102 48.7258 110.139 51.5782 110.703 54.7996C111.267 58.021 113.145 60.3916 114.897 60.0944Z" fill="#E61616"/>
<path d="M97.2592 35.6366C97.2155 35.2519 97.341 34.8674 97.6469 34.6301C98.3974 34.0477 100.101 33.0021 102.962 32.6772C105.822 32.3523 107.717 32.9892 108.579 33.3884C108.93 33.5511 109.139 33.8977 109.183 34.2824C109.301 35.3224 108.22 36.1183 107.228 35.7861C105.959 35.3614 104.396 34.9675 103.237 35.0992C102.077 35.2308 100.643 35.9652 99.5015 36.6636C98.6088 37.2099 97.3773 36.6766 97.2592 35.6366Z" fill="#DCC295"/>
<path d="M129.193 35.6366C129.237 35.2519 129.111 34.8674 128.805 34.6301C128.055 34.0477 126.351 33.0021 123.491 32.6772C120.63 32.3523 118.735 32.9892 117.873 33.3884C117.522 33.5511 117.313 33.8977 117.27 34.2824C117.152 35.3224 118.232 36.1183 119.225 35.7861C120.493 35.3614 122.056 34.9675 123.216 35.0992C124.375 35.2308 125.81 35.9652 126.951 36.6636C127.844 37.2099 129.075 36.6766 129.193 35.6366Z" fill="#DCC295"/>
<path d="M106 44.2203C106 43.5464 106.546 43 107.22 43H113H118.78C119.454 43 120 43.5464 120 44.2203V45C120 48.866 116.866 52 113 52C109.134 52 106 48.866 106 45V44.2203Z" fill="#DCC295"/>
<path d="M42 56.355L26.5 58.355L24.625 51.2925H17.5L15.9375 58.355L0 56.7925L12.4375 15.1675L29.8125 14.2925L42 56.355ZM23.5 41.73L21.125 30.855L18.8125 41.73H23.5Z" fill="#DCC295"/>
<path d="M83.2469 34.23C83.2469 37.1467 82.8719 39.7821 82.1219 42.1363C81.3719 44.4696 80.3199 46.553 78.9657 48.3863C77.6324 50.1988 76.0386 51.7613 74.1844 53.0738C72.3303 54.3863 70.299 55.4696 68.0907 56.3238C65.8824 57.1571 63.5282 57.7821 61.0282 58.1988C58.549 58.5946 55.9969 58.7925 53.3719 58.7925C52.3928 58.7925 51.4344 58.7717 50.4969 58.73C49.5594 58.6675 48.6011 58.5842 47.6219 58.48L48.4969 16.5425C50.7886 15.8134 53.1428 15.303 55.5594 15.0113C57.9969 14.6988 60.4136 14.5425 62.8094 14.5425C65.7886 14.5425 68.5282 14.9905 71.0282 15.8863C73.5282 16.7821 75.6844 18.0738 77.4969 19.7613C79.3094 21.4488 80.7157 23.5113 81.7157 25.9488C82.7365 28.3863 83.2469 31.1467 83.2469 34.23ZM70.4344 36.23C70.4553 35.105 70.3303 34.0217 70.0594 32.98C69.8094 31.9384 69.3824 31.0217 68.7782 30.23C68.1949 29.4175 67.4449 28.7717 66.5282 28.2925C65.6115 27.7925 64.5178 27.5217 63.2469 27.48L61.9969 46.855C63.2469 46.6675 64.3824 46.2613 65.4032 45.6363C66.424 44.9905 67.299 44.2092 68.0282 43.2925C68.7782 42.355 69.3511 41.3238 69.7469 40.1988C70.1636 39.053 70.3928 37.8759 70.4344 36.6675V36.23Z" fill="#DCC295"/>
<path d="M180.911 28.98C180.911 31.0009 180.609 32.7925 180.005 34.355C179.401 35.9175 178.567 37.2821 177.505 38.4488C176.463 39.6155 175.234 40.605 173.817 41.4175C172.401 42.23 170.88 42.8967 169.255 43.4175C167.651 43.9175 165.984 44.2925 164.255 44.5425C162.526 44.7717 160.828 44.8967 159.161 44.9175V59.48H144.598C144.598 54.7092 144.609 49.9592 144.63 45.23C144.651 40.5009 144.682 35.73 144.723 30.9175C144.765 28.3759 144.776 25.8342 144.755 23.2925C144.734 20.7509 144.786 18.1884 144.911 15.605C147.578 14.8134 150.244 14.2196 152.911 13.8238C155.578 13.428 158.328 13.23 161.161 13.23C162.765 13.23 164.369 13.3655 165.973 13.6363C167.578 13.8863 169.109 14.2925 170.567 14.855C172.046 15.4175 173.411 16.1259 174.661 16.98C175.932 17.8134 177.026 18.8134 177.942 19.98C178.859 21.1467 179.578 22.48 180.098 23.98C180.64 25.4592 180.911 27.1259 180.911 28.98ZM167.036 30.0425C167.036 28.6884 166.619 27.6363 165.786 26.8863C164.973 26.1155 163.911 25.73 162.598 25.73C162.161 25.73 161.703 25.7717 161.223 25.855C160.765 25.9175 160.328 26.0009 159.911 26.105L159.536 35.23C159.828 35.2717 160.109 35.2925 160.38 35.2925C160.651 35.2925 160.932 35.2925 161.223 35.2925C161.973 35.2925 162.692 35.1675 163.38 34.9175C164.088 34.6675 164.713 34.3134 165.255 33.855C165.796 33.3759 166.223 32.8238 166.536 32.1988C166.869 31.553 167.036 30.8342 167.036 30.0425Z" fill="#DCC295"/>
<path d="M212.315 13.98C212.19 15.9384 212.075 17.8759 211.971 19.7925C211.867 21.7092 211.732 23.6467 211.565 25.605L198.315 26.2925L198.003 30.23H207.315L206.628 39.9175L197.253 40.23L196.94 44.7925H204.69H210.19C210.065 47.0842 209.93 49.3655 209.784 51.6363C209.659 53.8863 209.544 56.1467 209.44 58.4175L182.503 59.0425L183.503 13.98H212.315Z" fill="#DCC295"/>
<path d="M251.171 14.355L250.858 27.605L241.546 27.98L239.171 57.605L225.983 58.2925L226.046 28.6675L216.733 29.1675L217.108 14.4175L251.171 14.355Z" fill="#DCC295"/>
</svg>
